<?xml version="1.0" encoding="UTF-8" standalone="no"?>
<svg
   xmlns:svg="http://www.w3.org/2000/svg"
   xmlns="http://www.w3.org/2000/svg"
   xmlns:xlink="http://www.w3.org/1999/xlink"
   xmlns:sodipodi="http://sodipodi.sourceforge.net/DTD/sodipodi-0.dtd"
   xmlns:inkscape="http://www.inkscape.org/namespaces/inkscape"
   width="900.34094"
   height="540.77203"
   id="svg4330"
   version="1.1"
   inkscape:version="0.48.3.1 r9886"
   sodipodi:docname="repetbolus.svg">
  <defs
     id="defs4332">
    <linearGradient
       id="linearGradient3294"
       inkscape:collect="always">
      <stop
         id="stop3296"
         offset="0"
         style="stop-color:#ff0000;stop-opacity:1" />
      <stop
         style="stop-color:#00ff00;stop-opacity:1"
         offset="0.50062704"
         id="stop3298" />
      <stop
         id="stop3300"
         offset="1"
         style="stop-color:#0000ff;stop-opacity:1" />
    </linearGradient>
    <linearGradient
       id="linearGradient3284"
       inkscape:collect="always">
      <stop
         id="stop3286"
         offset="0"
         style="stop-color:#ff0000;stop-opacity:1" />
      <stop
         style="stop-color:#00ff00;stop-opacity:1"
         offset="0.35564956"
         id="stop3288" />
      <stop
         id="stop3290"
         offset="1"
         style="stop-color:#0000ff;stop-opacity:1" />
    </linearGradient>
    <linearGradient
       inkscape:collect="always"
       id="linearGradient3838">
      <stop
         style="stop-color:#ff0000;stop-opacity:1"
         offset="0"
         id="stop3840" />
      <stop
         id="stop3842"
         offset="0.50358331"
         style="stop-color:#00ff00;stop-opacity:1" />
      <stop
         style="stop-color:#0000ff;stop-opacity:1"
         offset="1"
         id="stop3844" />
    </linearGradient>
    <linearGradient
       id="linearGradient3057"
       inkscape:collect="always">
      <stop
         id="stop3059"
         offset="0"
         style="stop-color:#ff0000;stop-opacity:1" />
      <stop
         style="stop-color:#00ff00;stop-opacity:1"
         offset="0.5"
         id="stop3061" />
      <stop
         id="stop3063"
         offset="1"
         style="stop-color:#0000ff;stop-opacity:1" />
    </linearGradient>
    <linearGradient
       inkscape:collect="always"
       xlink:href="#linearGradient3057"
       id="linearGradient3055"
       gradientUnits="userSpaceOnUse"
       gradientTransform="translate(0.49880981,-140.55941)"
       x1="-85.784904"
       y1="497.31363"
       x2="-80.411621"
       y2="897.31366" />
    <linearGradient
       inkscape:collect="always"
       xlink:href="#linearGradient3838"
       id="linearGradient3836"
       gradientUnits="userSpaceOnUse"
       gradientTransform="matrix(1,0,0,1.5612038,-249.00887,-607.36126)"
       x1="131.01132"
       y1="650.54498"
       x2="128.04674"
       y2="839.40649" />
    <linearGradient
       inkscape:collect="always"
       xlink:href="#linearGradient3284"
       id="linearGradient3282"
       gradientUnits="userSpaceOnUse"
       gradientTransform="matrix(1,0,0,1.5612038,-249.00887,-607.36126)"
       x1="123.94025"
       y1="479.20285"
       x2="119.96552"
       y2="735.41541" />
    <linearGradient
       inkscape:collect="always"
       xlink:href="#linearGradient3294"
       id="linearGradient3302"
       gradientUnits="userSpaceOnUse"
       gradientTransform="matrix(1,0,0,1.5612038,-249.00887,-607.36126)"
       x1="144.1433"
       y1="479.20285"
       x2="135.1178"
       y2="735.41541" />
    <linearGradient
       inkscape:collect="always"
       xlink:href="#linearGradient3284"
       id="linearGradient3304"
       gradientUnits="userSpaceOnUse"
       gradientTransform="matrix(1,0,0,1.5612038,-249.00887,-607.36126)"
       x1="123.94025"
       y1="479.20285"
       x2="119.96552"
       y2="735.41541" />
  </defs>
  <sodipodi:namedview
     id="base"
     pagecolor="#ffffff"
     bordercolor="#666666"
     borderopacity="1.0"
     inkscape:pageopacity="0.0"
     inkscape:pageshadow="2"
     inkscape:zoom="0.7"
     inkscape:cx="840.42974"
     inkscape:cy="135.86883"
     inkscape:document-units="px"
     inkscape:current-layer="layer1"
     showgrid="false"
     fit-margin-top="0"
     fit-margin-left="0"
     fit-margin-right="0"
     fit-margin-bottom="0"
     showborder="false"
     inkscape:showpageshadow="false"
     showguides="true"
     inkscape:guide-bbox="true"
     inkscape:window-width="1280"
     inkscape:window-height="776"
     inkscape:window-x="0"
     inkscape:window-y="24"
     inkscape:window-maximized="1" />
  <g
     inkscape:label="Ebene 1"
     inkscape:groupmode="layer"
     id="layer1"
     transform="translate(202.09494,-215.98219)">
    <rect
       style="fill:url(#linearGradient3055);fill-opacity:1;fill-rule:evenodd;stroke:none"
       id="rect4265"
       width="34.635807"
       height="374.13498"
       x="-202.09494"
       y="362.62476"
       rx="0"
       ry="0" />
    <g
       transform="matrix(0.81501696,0,0,0.89155561,-150.0869,-201.47969)"
       id="zeitachsen">
      <g
         id="g3917">
        <path
           id="path3797"
           style="fill:none;stroke:#000000;stroke-width:2.34624004;stroke-linecap:butt;stroke-linejoin:miter;stroke-miterlimit:4;stroke-opacity:1;stroke-dasharray:none"
           d="m 0,1052.3622 999.99997,0 M 0,632.36219 0,1052.3622"
           inkscape:connector-curvature="0" />
        <g
           transform="matrix(1.1957902,0,0,0.83626709,-60.609153,-31.108845)"
           id="text3874">
          <path
             d="m 25.456661,850.04181 6.41554,0.83365 c -0.70079,4.42202 -2.49496,7.88351 -5.38253,10.38447 -2.88762,2.50098 -6.43368,3.75146 -10.63819,3.75146 -5.26776,0 -9.5024998,-1.72168 -12.7042098,-5.16505 -3.20172996,-3.44336 -4.8026,-8.37885 -4.80259,-14.80648 -10e-6,-4.15618 0.68867004,-7.79286 2.06602004,-10.91004 1.37733996,-3.11712 3.47355996,-5.45498 6.28866996,-7.01359 2.81509,-1.55854 5.8778698,-2.33783 9.1883598,-2.33787 4.18034,4e-5 7.59954,1.05722 10.25761,3.17153 2.658,2.11438 4.36156,5.11675 5.11068,9.00712 l -6.34305,0.97864 c -0.60412,-2.58552 -1.67338,-4.53071 -3.20776,-5.8356 -1.53444,-1.30482 -3.38903,-1.95725 -5.56376,-1.95728 -3.28632,3e-5 -5.95644,1.17802 -8.0103598,3.53398 -2.05395,2.35602 -3.08092,6.08331 -3.08091,11.18188 -10e-6,5.17111 0.99071,8.9286 2.97217,11.2725 1.9814298,2.34391 4.5669798,3.51586 7.7566398,3.51586 2.56136,0 4.69987,-0.78533 6.41554,-2.35599 1.71561,-1.57065 2.80299,-3.98705 3.26213,-7.24919 z"
             id="path3879"
             inkscape:connector-curvature="0" />
          <path
             d="m 920.19474,1312.9376 0.94239,5.7631 c -1.83648,0.3866 -3.47963,0.5799 -4.92945,0.5799 -2.36808,0 -4.20454,-0.3745 -5.50939,-1.1236 -1.30486,-0.7491 -2.22309,-1.7338 -2.75469,-2.9541 -0.53162,-1.2202 -0.79742,-3.7877 -0.79741,-7.7022 l 0,-22.1463 -4.78447,0 0,-5.0745 4.78447,0 0,-9.5326 6.48803,-3.9146 0,13.4472 6.56052,0 0,5.0745 -6.56052,0 0,22.5087 c -2e-5,1.8607 0.11476,3.0568 0.34433,3.5884 0.22955,0.5316 0.60409,0.9545 1.12363,1.2686 0.51951,0.3141 1.26255,0.4712 2.22913,0.4712 0.7249,0 1.67937,-0.085 2.86343,-0.2537 z"
             id="path3881"
             inkscape:connector-curvature="0" />
          <g
             id="g3911">
            <g
               id="text3883"
               transform="matrix(-0.4866423,0,0,-1.1865096,24.833034,-132.44019)">
              <linearGradient
                 inkscape:collect="always"
                 xlink:href="#linearGradient3294"
                 id="linearGradient3292"
                 gradientUnits="userSpaceOnUse"
                 gradientTransform="matrix(1,0,0,1.5612038,-249.00887,-607.36126)"
                 x1="144.1433"
                 y1="479.20285"
                 x2="135.1178"
                 y2="735.41541" />
              <path
                 inkscape:connector-curvature="0"
                 id="path3888"
                 d="m -55.783812,-773.76569 -13.104224,-34.44724 6.162878,0 7.395452,20.62942 c 0.800078,2.2273 1.535298,4.54108 2.205662,6.94135 0.518962,-1.81642 1.243369,-4.00045 2.173225,-6.55211 l 7.654942,-21.01866 6.000696,0 -13.039351,34.44724 z" />
            </g>
            <g
               id="text3883-1"
               transform="matrix(0,-0.69585674,0.82977677,0,1534.7113,1258.6373)">
              <path
                 inkscape:connector-curvature="0"
                 id="path3888-7"
                 d="m -55.783812,-773.76569 -13.104224,-34.44724 6.162878,0 7.395452,20.62942 c 0.800078,2.2273 1.535298,4.54108 2.205662,6.94135 0.518962,-1.81642 1.243369,-4.00045 2.173225,-6.55211 l 7.654942,-21.01866 6.000696,0 -13.039351,34.44724 z" />
            </g>
          </g>
        </g>
      </g>
      <g
         id="g4031">
        <g
           id="g4003">
          <g
             transform="translate(122.07918,133.60968)"
             id="text3936"
             style="font-size:20px;font-style:normal;font-variant:normal;font-weight:bold;font-stretch:normal;text-align:start;line-height:125%;letter-spacing:0px;word-spacing:0px;writing-mode:lr-tb;text-anchor:start;fill:#000000;fill-opacity:1;stroke:none;font-family:Arial;-inkscape-font-specification:Arial Bold" />
          <g
             transform="translate(322.07918,133.60968)"
             id="text3936-4"
             style="font-size:20px;font-style:normal;font-variant:normal;font-weight:bold;font-stretch:normal;text-align:start;line-height:125%;letter-spacing:0px;word-spacing:0px;writing-mode:lr-tb;text-anchor:start;fill:#000000;fill-opacity:1;stroke:none;font-family:Arial;-inkscape-font-specification:Arial Bold" />
          <g
             transform="translate(522.07918,133.60968)"
             id="text3936-9"
             style="font-size:20px;font-style:normal;font-variant:normal;font-weight:bold;font-stretch:normal;text-align:start;line-height:125%;letter-spacing:0px;word-spacing:0px;writing-mode:lr-tb;text-anchor:start;fill:#000000;fill-opacity:1;stroke:none;font-family:Arial;-inkscape-font-specification:Arial Bold" />
          <g
             transform="translate(722.07918,133.60968)"
             id="text3936-8"
             style="font-size:20px;font-style:normal;font-variant:normal;font-weight:bold;font-stretch:normal;text-align:start;line-height:125%;letter-spacing:0px;word-spacing:0px;writing-mode:lr-tb;text-anchor:start;fill:#000000;fill-opacity:1;stroke:none;font-family:Arial;-inkscape-font-specification:Arial Bold" />
          <g
             transform="translate(-1.4717413,2.0203386)"
             id="text3984"
             style="font-size:16px;font-style:normal;font-variant:normal;font-weight:bold;font-stretch:normal;text-align:start;line-height:125%;letter-spacing:0px;word-spacing:0px;writing-mode:lr-tb;text-anchor:start;fill:#000000;fill-opacity:1;stroke:none;font-family:Arial;-inkscape-font-specification:Arial Bold" />
          <g
             style="font-size:16px;font-style:normal;font-variant:normal;font-weight:bold;font-stretch:normal;text-align:start;line-height:125%;letter-spacing:0px;word-spacing:0px;writing-mode:lr-tb;text-anchor:start;fill:#000000;fill-opacity:1;stroke:none;font-family:Arial;-inkscape-font-specification:Arial Bold"
             id="text3988" />
          <g
             style="font-size:16px;font-style:normal;font-variant:normal;font-weight:bold;font-stretch:normal;text-align:start;line-height:125%;letter-spacing:0px;word-spacing:0px;writing-mode:lr-tb;text-anchor:start;fill:#000000;fill-opacity:1;stroke:none;font-family:Arial;-inkscape-font-specification:Arial Bold"
             id="text3992" />
          <g
             style="font-size:16px;font-style:normal;font-variant:normal;font-weight:bold;font-stretch:normal;text-align:start;line-height:125%;letter-spacing:0px;word-spacing:0px;writing-mode:lr-tb;text-anchor:start;fill:#000000;fill-opacity:1;stroke:none;font-family:Arial;-inkscape-font-specification:Arial Bold"
             id="text3996">
            <path
               id="path4028"
               d="m 790.22894,1068.4059 c -0.56771,-0.2396 -0.98047,-0.569 -1.23828,-0.9883 -0.25781,-0.4193 -0.38672,-0.8789 -0.38672,-1.3789 0,-0.8542 0.29818,-1.5599 0.89453,-2.1172 0.59636,-0.5573 1.44401,-0.8359 2.54297,-0.8359 1.08854,0 1.93359,0.2786 2.53516,0.8359 0.60155,0.5573 0.90234,1.263 0.90234,2.1172 0,0.5313 -0.13803,1.0039 -0.41406,1.418 -0.27605,0.414 -0.66407,0.7304 -1.16406,0.9492 0.63541,0.2552 1.11848,0.6276 1.44922,1.1172 0.33072,0.4896 0.49608,1.0547 0.49609,1.6953 -10e-6,1.0573 -0.33725,1.9167 -1.01172,2.5781 -0.67448,0.6615 -1.57162,0.9922 -2.6914,0.9922 -1.04167,0 -1.90886,-0.2734 -2.60157,-0.8203 -0.81771,-0.6458 -1.22656,-1.5313 -1.22656,-2.6563 0,-0.6198 0.15365,-1.1888 0.46094,-1.707 0.30729,-0.5182 0.79166,-0.918 1.45312,-1.1992 z m 0.45313,-2.211 c -10e-6,0.4376 0.12369,0.7787 0.37109,1.0235 0.24739,0.2448 0.57682,0.3672 0.98828,0.3672 0.41666,0 0.75,-0.1237 1,-0.3711 0.25,-0.2474 0.375,-0.5899 0.375,-1.0274 0,-0.4114 -0.1237,-0.7408 -0.37109,-0.9882 -0.2474,-0.2474 -0.57422,-0.3711 -0.98047,-0.3711 -0.42188,0 -0.75782,0.125 -1.00781,0.375 -0.25001,0.25 -0.37501,0.5807 -0.375,0.9921 z m -0.20313,4.9063 c 0,0.6042 0.15495,1.0755 0.46485,1.4141 0.30989,0.3385 0.69661,0.5078 1.16015,0.5078 0.45312,0 0.82812,-0.1628 1.125,-0.4883 0.29687,-0.3255 0.44531,-0.7956 0.44532,-1.4102 -10e-6,-0.5364 -0.15105,-0.9674 -0.45313,-1.2929 -0.30209,-0.3256 -0.6849,-0.4883 -1.14844,-0.4883 -0.53646,0 -0.9362,0.1849 -1.19922,0.5547 -0.26302,0.3698 -0.39453,0.7708 -0.39453,1.2031 z m -197.23089,-5.1641 -2.125,0.2344 c -0.0521,-0.4375 -0.18751,-0.7604 -0.40625,-0.9687 -0.21876,-0.2084 -0.50261,-0.3125 -0.85157,-0.3125 -0.46354,0 -0.85547,0.2083 -1.17578,0.625 -0.32031,0.4166 -0.52214,1.2838 -0.60547,2.6015 0.54688,-0.6458 1.22656,-0.9687 2.03907,-0.9687 0.91666,0 1.70181,0.3489 2.35547,1.0468 0.65363,0.698 0.98046,1.599 0.98046,2.7032 0,1.1718 -0.34375,2.112 -1.03125,2.8203 -0.6875,0.7083 -1.57031,1.0625 -2.64843,1.0625 -1.15626,0 -2.10678,-0.4492 -2.85157,-1.3477 -0.74479,-0.8984 -1.11718,-2.3711 -1.11718,-4.4179 0,-2.099 0.38802,-3.612 1.16406,-4.5391 0.77604,-0.9271 1.78385,-1.3906 3.02344,-1.3906 0.86978,0 1.58983,0.2435 2.16015,0.7304 0.57031,0.487 0.93359,1.1941 1.08985,2.1211 z m -4.97657,4.7891 c 0,0.7135 0.16406,1.2643 0.49219,1.6523 0.32812,0.3881 0.70312,0.5821 1.125,0.5821 0.40625,0 0.74479,-0.1589 1.01563,-0.4766 0.27082,-0.3177 0.40624,-0.8385 0.40625,-1.5625 -1e-5,-0.7448 -0.14584,-1.2904 -0.4375,-1.6367 -0.29168,-0.3464 -0.65626,-0.5195 -1.09375,-0.5195 -0.42188,0 -0.77865,0.1653 -1.07032,0.4961 -0.29167,0.3307 -0.4375,0.819 -0.4375,1.4648 z m -197.91391,3.8594 0,-2.3047 -4.6875,0 0,-1.9219 4.96875,-7.2734 1.84375,0 0,7.2656 1.42188,0 0,1.9297 -1.42188,0 0,2.3047 z m 0,-4.2344 0,-3.9141 -2.63281,3.9141 z m -199.38272,2.1952 0,2.0391 -7.69531,0 c 0.0833,-0.7708 0.33333,-1.5013 0.75,-2.1914 0.41667,-0.6901 1.23958,-1.6055 2.46875,-2.7461 0.98958,-0.9219 1.59635,-1.5469 1.82031,-1.875 0.30208,-0.4531 0.45312,-0.901 0.45313,-1.3438 -1e-5,-0.4895 -0.13152,-0.8658 -0.39453,-1.1289 -0.26303,-0.263 -0.62631,-0.3945 -1.08985,-0.3945 -0.45833,0 -0.82292,0.138 -1.09375,0.4141 -0.27083,0.276 -0.42708,0.7343 -0.46875,1.375 l -2.1875,-0.2188 c 0.13021,-1.2083 0.53907,-2.0755 1.22657,-2.6016 0.68749,-0.526 1.54687,-0.789 2.57812,-0.789 1.1302,0 2.01822,0.3047 2.66406,0.914 0.64583,0.6094 0.96875,1.3672 0.96875,2.2735 0,0.5156 -0.0924,1.0065 -0.27734,1.4726 -0.1849,0.4662 -0.47787,0.9545 -0.87891,1.4649 -0.26563,0.3385 -0.74479,0.8255 -1.4375,1.4609 -0.69271,0.6354 -1.13151,1.0573 -1.3164,1.2656 -0.1849,0.2084 -0.33464,0.4115 -0.44922,0.6094 z m 606.28101,-21.5905 0,-2.539 2.74414,0 0,2.539 z m 0,11.7774 0,-10.3711 2.74414,0 0,10.3711 z m -200,-11.7774 0,-2.539 2.74414,0 0,2.539 z m 0,11.7774 0,-10.3711 2.74414,0 0,10.3711 z m -200,-11.7774 0,-2.539 2.74414,0 0,2.539 z m 0,11.7774 0,-10.3711 2.74414,0 0,10.3711 z m -200,-11.7774 0,-2.539 2.74414,0 0,2.539 z m 0,11.7774 0,-10.3711 2.74414,0 0,10.3711 z"
               inkscape:connector-curvature="0" />
          </g>
        </g>
      </g>
    </g>
    <path
       style="fill:none;stroke:url(#linearGradient3836);stroke-width:8.74636936;stroke-linecap:butt;stroke-linejoin:miter;stroke-miterlimit:4;stroke-opacity:1"
       d="m -141.16518,476.82685 c 117.33884,125.23254 232.03842,158.35069 308.95939,180.65359 -0.56815,-116.30083 0.64785,-201.21107 30.29047,-200.72621 70.18204,1.14797 201.45583,201.42858 445.03586,201.42858"
       id="repbol"
       inkscape:connector-curvature="0"
       sodipodi:nodetypes="ccsc"
       class="repbol fragment" />
    <g
       transform="translate(-193.00356,227.61714)"
       style="fill:url(#linearGradient3282);fill-opacity:1;stroke:none"
       id="text3202"
       class="fragment">
      <path
         d="m 276.3125,442.6875 0,30.40625 3.625,0 0,-12.375 c -10e-6,-2.13541 0.5677,-3.8255 1.6875,-5.0625 1.11978,-1.23696 2.62239,-1.84373 4.5625,-1.84375 1.61457,2e-5 2.84894,0.50262 3.65625,1.53125 0.80727,1.02866 1.18748,2.58595 1.1875,4.65625 l 0,13.09375 3.59375,0 0,-13.21875 c -2e-5,-3.02082 -0.61721,-5.29425 -1.90625,-6.84375 -1.28908,-1.56248 -3.20574,-2.34372 -5.71875,-2.34375 -1.52345,3e-5 -2.85939,0.31773 -4.03125,0.96875 -1.15887,0.65106 -2.17188,1.65367 -3.03125,2.96875 l 0,-11.9375 -3.625,0 z m -38.1875,0.71875 c -3.19012,3e-5 -5.6771,0.7344 -7.5,2.21875 -1.8099,1.4844 -2.71875,3.51565 -2.71875,6.09375 0,2.22658 0.65364,3.96877 1.96875,5.21875 1.3151,1.25002 3.43228,2.16408 6.375,2.75 l 2.40625,0.46875 c 2.00519,0.40366 3.44008,1.00522 4.3125,1.8125 0.88539,0.8073 1.34373,1.94272 1.34375,3.375 -2e-5,1.64063 -0.61981,2.89584 -1.84375,3.78125 -1.22397,0.88542 -2.96616,1.34375 -5.21875,1.34375 -1.48439,0 -2.9948,-0.23176 -4.53125,-0.6875 -1.53646,-0.45572 -3.08594,-1.1328 -4.6875,-2.03125 l 0,4.0625 c 1.66666,0.61198 3.26301,1.0625 4.8125,1.375 1.56249,0.3125 3.02603,0.46875 4.40625,0.46875 3.65884,0 6.42446,-0.72916 8.3125,-2.1875 1.90102,-1.45833 2.87497,-3.61197 2.875,-6.4375 -3e-5,-2.36978 -0.71877,-4.24999 -2.125,-5.65625 -1.39325,-1.41926 -3.55731,-2.40884 -6.5,-2.96875 l -2.375,-0.46875 c -2.16147,-0.40363 -3.62501,-0.94269 -4.40625,-1.59375 -0.76824,-0.66405 -1.15626,-1.64842 -1.15625,-2.9375 -1e-5,-1.53644 0.55989,-2.72914 1.71875,-3.5625 1.17186,-0.83331 2.85155,-1.24997 5,-1.25 1.23696,3e-5 2.51561,0.17971 3.84375,0.53125 1.32811,0.35158 2.72134,0.90888 4.21875,1.625 l 0,-3.875 c -1.48439,-0.49476 -2.92449,-0.84632 -4.34375,-1.09375 -1.41928,-0.24737 -2.82033,-0.37497 -4.1875,-0.375 z m 25.71875,7.28125 c -3.41147,3e-5 -6.09636,1.01825 -8.0625,3.0625 -1.95313,2.04429 -2.90625,4.8698 -2.90625,8.4375 0,3.51563 0.96614,6.3047 2.90625,8.375 1.94009,2.07032 4.54947,3.09375 7.84375,3.09375 1.21092,0 2.33852,-0.10937 3.40625,-0.34375 1.08071,-0.23437 2.12237,-0.59375 3.125,-1.0625 l 0,-3.3125 c -1.01565,0.5599 -2.03387,0.96355 -3.0625,1.25 -1.01564,0.27344 -2.05209,0.4375 -3.09375,0.4375 -2.33074,0 -4.1172,-0.7474 -5.40625,-2.21875 -1.28907,-1.48437 -1.9375,-3.54947 -1.9375,-6.21875 0,-2.66926 0.64843,-4.74738 1.9375,-6.21875 1.28905,-1.48436 3.07551,-2.21873 5.40625,-2.21875 1.04166,2e-5 2.07811,0.11981 3.09375,0.40625 1.02863,0.27345 2.04685,0.69012 3.0625,1.25 l 0,-3.34375 c -0.98961,-0.45571 -2.00783,-0.80988 -3.0625,-1.03125 -1.0547,-0.23436 -2.14324,-0.34372 -3.25,-0.34375 z m 48.5,0 c -1.57554,3e-5 -2.91668,0.33076 -4.0625,0.96875 -1.14585,0.63805 -2.14845,1.62763 -2.96875,2.96875 l 0,-3.40625 -3.59375,0 0,21.875 3.59375,0 0,-12.375 c -10e-6,-2.12239 0.54426,-3.79425 1.625,-5.03125 1.08072,-1.24998 2.53905,-1.87498 4.375,-1.875 1.54946,2e-5 2.6953,0.51564 3.4375,1.53125 0.74217,1.00262 1.12498,2.54689 1.125,4.65625 l 0,13.09375 3.59375,0 0,-12.375 c -2e-5,-2.13541 0.54425,-3.8255 1.625,-5.0625 1.0807,-1.23696 2.57549,-1.84373 4.4375,-1.84375 1.52341,2e-5 2.63278,0.51564 3.375,1.53125 0.74215,1.01564 1.12497,2.55991 1.125,4.65625 l 0,13.09375 3.625,0 0,-13.21875 c -4e-5,-2.94269 -0.63806,-5.19269 -1.875,-6.78125 -1.23701,-1.60154 -3.00263,-2.40622 -5.28125,-2.40625 -1.69273,3e-5 -3.15627,0.38804 -4.40625,1.15625 -1.25002,0.76825 -2.32033,1.94793 -3.21875,3.5625 -0.53387,-1.53644 -1.34898,-2.69269 -2.46875,-3.5 -1.10679,-0.80727 -2.47398,-1.21872 -4.0625,-1.21875 z m 37.65625,0 c -3.28126,3e-5 -5.90365,1.04689 -7.84375,3.15625 -1.92708,2.09637 -2.875,4.95054 -2.875,8.53125 0,3.46355 1,6.21875 3.03125,8.25 2.04427,2.03125 4.8229,3.03125 8.3125,3.03125 1.39321,0 2.77082,-0.15105 4.125,-0.4375 1.35415,-0.28646 2.64842,-0.70313 3.9375,-1.25 l 0,-3.375 c -1.27606,0.67709 -2.54169,1.16146 -3.84375,1.5 -1.28908,0.33854 -2.61981,0.53125 -4,0.53125 -2.38282,0 -4.25261,-0.64843 -5.59375,-1.9375 -1.32813,-1.30207 -2.06251,-3.21353 -2.21875,-5.6875 l 16.5,0 0,-1.75 c -3e-5,-3.25519 -0.84377,-5.83072 -2.5625,-7.71875 C 355.263,451.63023 352.94269,450.68753 350,450.6875 z m 26.28125,0 c -1.73179,3e-5 -3.19533,0.31773 -4.40625,0.96875 -1.21095,0.63804 -2.21355,1.64065 -2.96875,2.96875 l 0,-3.40625 -3.59375,0 0,21.875 3.59375,0 0,-11.53125 c -10e-6,-2.47394 0.54426,-4.37238 1.625,-5.6875 1.09374,-1.32811 2.65624,-1.96873 4.6875,-1.96875 0.5729,2e-5 1.09374,0.0391 1.5625,0.15625 0.48176,0.10418 0.94008,0.26565 1.34375,0.5 l -0.0313,-3.6875 c -0.3646,-0.0651 -0.70054,-0.0989 -1,-0.125 -0.29949,-0.039 -0.56512,-0.0625 -0.8125,-0.0625 z m 4.09375,0.53125 0,2.875 13,0 -13.5,15.71875 0,3.28125 17.5625,0 0,-2.875 -13.53125,0 13.53125,-15.71875 0,-3.28125 -17.0625,0 z M 349.28125,453.75 c 0.23824,-0.0177 0.49935,0 0.75,0 1.77082,2e-5 3.18228,0.57814 4.25,1.75 1.08071,1.17189 1.63015,2.72137 1.65625,4.6875 l -12.8125,0.0313 c 0.18228,-2.05727 0.89583,-3.64842 2.09375,-4.78125 1.05956,-0.9912 2.39481,-1.56359 4.0625,-1.6875 z"
         id="path3267"
         inkscape:connector-curvature="0"
         style="fill:url(#linearGradient3304)" />
    </g>
    <g
       transform="translate(-174.82082,222.04311)"
       style="fill:url(#linearGradient3292);fill-opacity:1"
       id="text3206"
       class ="fragment">
      <path
         d="m 312.03125,184.3125 0,29.15625 3.9375,0 0,-11.71875 4.96875,0 c 3.26821,2e-5 5.73957,-0.71613 7.40625,-2.1875 1.67967,-1.47134 2.49998,-3.65363 2.5,-6.53125 -2e-5,-2.85154 -0.82033,-4.99737 -2.5,-6.46875 -1.66668,-1.48435 -4.13804,-2.24997 -7.40625,-2.25 l -8.90625,0 z m 3.9375,3.25 4.96875,0 c 1.83592,2e-5 3.24738,0.487 4.25,1.4375 1.00259,0.95054 1.49998,2.28648 1.5,4.03125 -2e-5,1.75783 -0.49741,3.11199 -1.5,4.0625 -1.00262,0.95053 -2.41408,1.43751 -4.25,1.4375 l -4.96875,0 0,-10.96875 z m 25.90625,3.53125 c -1.17189,2e-5 -2.35678,0.1146 -3.59375,0.375 -1.23699,0.24741 -2.52865,0.61721 -3.84375,1.125 l 0,3.34375 c 1.09375,-0.59894 2.2526,-1.0755 3.4375,-1.375 1.18489,-0.29945 2.37499,-0.43748 3.625,-0.4375 1.96613,2e-5 3.513,0.46356 4.59375,1.375 1.09373,0.89846 1.62499,2.15887 1.625,3.8125 l 0,0.375 -5.03125,0 c -3.26824,2e-5 -5.72136,0.62501 -7.375,1.875 -1.64063,1.25001 -2.46875,3.10157 -2.46875,5.5625 0,2.10938 0.65364,3.79948 1.96875,5.0625 1.32812,1.25 3.10416,1.875 5.34375,1.875 1.77082,0 3.27603,-0.3125 4.5,-0.9375 1.22394,-0.63802 2.24217,-1.64062 3.0625,-2.96875 l 0,3.3125 3.59375,0 0,-12.46875 c -2e-5,-3.33332 -0.78127,-5.82811 -2.34375,-7.46875 -1.56251,-1.6406 -3.9297,-2.43748 -7.09375,-2.4375 z m 27.71875,0 c -1.73178,2e-5 -3.22657,0.31773 -4.4375,0.96875 -1.21095,0.63805 -2.1823,1.6094 -2.9375,2.9375 l 0,-3.40625 -3.625,0 0,21.875 3.625,0 0,-11.5 c -10e-6,-2.47395 0.54427,-4.37238 1.625,-5.6875 1.09374,-1.3281 2.65624,-1.99998 4.6875,-2 0.57291,2e-5 1.09374,0.0703 1.5625,0.1875 0.48176,0.10418 0.90884,0.26564 1.3125,0.5 l 0,-3.6875 c -0.3646,-0.0651 -0.70053,-0.13015 -1,-0.15625 -0.29949,-0.0391 -0.56512,-0.0312 -0.8125,-0.0313 z m 13.9375,0 c -3.28126,2e-5 -5.90365,1.0469 -7.84375,3.15625 -1.92708,2.09638 -2.875,4.91928 -2.875,8.5 0,3.46355 1,6.21875 3.03125,8.25 2.04427,2.03125 4.82291,3.0625 8.3125,3.0625 1.39322,0 2.77082,-0.15104 4.125,-0.4375 1.35415,-0.28645 2.67967,-0.70312 3.96875,-1.25 l 0,-3.40625 c -1.27606,0.67708 -2.57293,1.19272 -3.875,1.53125 -1.28907,0.33855 -2.61981,0.5 -4,0.5 -2.38283,0 -4.25261,-0.64843 -5.59375,-1.9375 -1.32813,-1.30208 -2.06251,-3.18228 -2.21875,-5.65625 l 16.5,0 0,-1.75 c -3e-5,-3.2552 -0.84377,-5.83071 -2.5625,-7.71875 -1.70575,-1.90102 -4.02605,-2.84373 -6.96875,-2.84375 z m 21.40625,0 c -2.21314,0.12249 -3.94271,0.67645 -5.21875,1.65625 -1.45834,1.11981 -2.1875,2.72398 -2.1875,4.78125 0,1.69273 0.47916,3.02345 1.46875,4 0.98957,0.96355 2.61719,1.68751 4.84375,2.15625 l 1.25,0.28125 c 2.22655,0.48178 3.66145,0.97918 4.3125,1.5 0.66405,0.52084 0.99999,1.27344 1,2.25 -10e-6,1.05469 -0.46356,1.88282 -1.375,2.46875 -0.91147,0.57292 -2.21356,0.84375 -3.90625,0.84375 -1.26303,0 -2.52344,-0.16146 -3.8125,-0.5 -1.28907,-0.35156 -2.60938,-0.8724 -3.9375,-1.5625 l 0,3.71875 c 1.40625,0.45573 2.73697,0.77864 4,1 1.27603,0.23437 2.51562,0.375 3.6875,0.375 2.81249,0 4.99217,-0.59636 6.59375,-1.78125 1.61456,-1.1849 2.43748,-2.8125 2.4375,-4.84375 -2e-5,-1.78385 -0.54429,-3.16665 -1.625,-4.15625 -1.06773,-1.00259 -2.88543,-1.76561 -5.4375,-2.3125 l -1.21875,-0.28125 c -1.92709,-0.42968 -3.20573,-0.87499 -3.84375,-1.34375 C 401.33073,198.86199 401,198.20835 401,197.375 c 0,-1.09373 0.45833,-1.92186 1.34375,-2.46875 0.89843,-0.54686 2.21613,-0.81248 4,-0.8125 1.17186,2e-5 2.31249,0.1146 3.40625,0.375 1.09374,0.26043 2.1406,0.66669 3.15625,1.1875 l 0,-3.40625 c -0.9896,-0.39061 -2.04689,-0.67967 -3.21875,-0.875 -1.17189,-0.19527 -2.42189,-0.28123 -3.75,-0.28125 -0.33529,0 -0.68384,-0.0175 -1,0 z m 24.0625,0 c -3.28126,2e-5 -5.90365,1.0469 -7.84375,3.15625 -1.92708,2.09638 -2.875,4.91928 -2.875,8.5 0,3.46355 1,6.21875 3.03125,8.25 2.04427,2.03125 4.82291,3.0625 8.3125,3.0625 1.39322,0 2.77082,-0.15104 4.125,-0.4375 1.35415,-0.28645 2.67967,-0.70312 3.96875,-1.25 l 0,-3.40625 c -1.27606,0.67708 -2.57293,1.19272 -3.875,1.53125 -1.28907,0.33855 -2.61981,0.5 -4,0.5 -2.38283,0 -4.25261,-0.64843 -5.59375,-1.9375 -1.32813,-1.30208 -2.06251,-3.18228 -2.21875,-5.65625 l 16.5,0 0,-1.75 c -3e-5,-3.2552 -0.84377,-5.83071 -2.5625,-7.71875 C 434.263,192.03648 431.9427,191.09377 429,191.09375 z m -45.4375,3.03125 c 1.77082,2e-5 3.18228,0.57814 4.25,1.75 1.08071,1.17189 1.63015,2.75262 1.65625,4.71875 l -12.8125,0.0313 c 0.18228,-2.05728 0.89582,-3.67967 2.09375,-4.8125 1.21093,-1.13279 2.80728,-1.68748 4.8125,-1.6875 z m 45.46875,0 c 1.77082,2e-5 3.18228,0.57814 4.25,1.75 1.08071,1.17189 1.63015,2.75262 1.65625,4.71875 l -12.8125,0.0313 c 0.18228,-2.05728 0.89582,-3.67967 2.09375,-4.8125 1.21093,-1.13279 2.80728,-1.68748 4.8125,-1.6875 z m -84.875,8.375 3.5625,0 0,0.78125 c -10e-6,2.34376 -0.60158,4.23699 -1.8125,5.65625 -1.19793,1.40626 -2.78907,2.09375 -4.78125,2.09375 -1.44532,0 -2.59115,-0.35156 -3.4375,-1.09375 -0.83334,-0.75521 -1.25001,-1.78645 -1.25,-3.0625 -10e-6,-1.60155 0.5677,-2.74217 1.6875,-3.40625 1.11978,-0.66405 3.1276,-0.96874 6.03125,-0.96875 z"
         id="path3211"
         inkscape:connector-curvature="0"
         style="fill:url(#linearGradient3302)" />
    </g>
  </g>
</svg>
